<svg aria-hidden="true" style="position: absolute; width: 0; height: 0; overflow: hidden;" version="1.1" xmlns="http://www.w3.org/2000/svg" xmlns:xlink="http://www.w3.org/1999/xlink">
<defs>
<symbol id="icon-facebook" viewBox="0 0 32 32">
<path d="M0 16.089c0 7.955 5.777 14.569 13.333 15.911v-11.556h-4v-4.444h4v-3.556c0-4 2.577-6.221 6.223-6.221 1.155 0 2.4 0.177 3.555 0.355v4.089h-2.044c-1.956 0-2.4 0.977-2.4 2.223v3.111h4.267l-0.711 4.444h-3.556v11.556c7.556-1.341 13.333-7.955 13.333-15.911 0-8.849-7.2-16.089-16-16.089s-16 7.24-16 16.089z"></path>
</symbol>
<symbol id="icon-twiter" viewBox="0 0 39 32">
<path stroke-linejoin="round" stroke-linecap="round" stroke-miterlimit="4" stroke-width="3.3684" d="M38.737 1.697c0 0-1.297 3.535-3.705 5.724 2.964 16.834-17.415 29.123-33.347 19.528 4.076 0.168 8.152-1.010 11.116-3.367-9.263-2.525-13.895-12.457-9.263-20.201 4.076 4.377 10.375 6.902 16.674 6.734-1.667-7.070 7.411-11.111 12.968-6.397 2.038 0 5.558-2.020 5.558-2.020z"></path>
</symbol>
<symbol id="icon-instagram" viewBox="0 0 32 32">
<path d="M9.404 0.096c1.706-0.079 2.25-0.096 6.596-0.096s4.89 0.019 6.595 0.096c1.705 0.077 2.868 0.349 3.887 0.743 1.066 0.403 2.033 1.033 2.833 1.847 0.815 0.799 1.443 1.764 1.844 2.832 0.396 1.018 0.666 2.182 0.745 3.884 0.079 1.709 0.096 2.253 0.096 6.598 0 4.346-0.019 4.89-0.096 6.596-0.077 1.702-0.349 2.865-0.745 3.884-0.401 1.068-1.031 2.035-1.844 2.835-0.8 0.815-1.767 1.443-2.833 1.844-1.018 0.396-2.182 0.666-3.884 0.745-1.708 0.079-2.252 0.096-6.598 0.096s-4.89-0.019-6.596-0.096c-1.702-0.077-2.865-0.349-3.884-0.745-1.068-0.401-2.035-1.031-2.835-1.844-0.814-0.799-1.444-1.766-1.846-2.833-0.394-1.018-0.665-2.182-0.743-3.884-0.079-1.709-0.096-2.253-0.096-6.598 0-4.346 0.019-4.89 0.096-6.595s0.349-2.868 0.743-3.887c0.403-1.068 1.033-2.034 1.847-2.833 0.799-0.814 1.765-1.444 2.832-1.846 1.018-0.394 2.182-0.665 3.884-0.743h0.001zM22.465 2.976c-1.687-0.077-2.193-0.093-6.465-0.093s-4.778 0.016-6.465 0.093c-1.561 0.071-2.407 0.332-2.972 0.551-0.746 0.291-1.28 0.636-1.84 1.196-0.531 0.516-0.939 1.145-1.196 1.84-0.22 0.564-0.48 1.411-0.551 2.972-0.077 1.687-0.093 2.193-0.093 6.465s0.016 4.778 0.093 6.465c0.071 1.561 0.332 2.407 0.551 2.972 0.256 0.694 0.665 1.324 1.196 1.84 0.516 0.531 1.146 0.94 1.84 1.196 0.564 0.22 1.411 0.48 2.972 0.551 1.687 0.077 2.192 0.093 6.465 0.093s4.778-0.016 6.465-0.093c1.561-0.071 2.407-0.332 2.972-0.551 0.746-0.291 1.28-0.636 1.84-1.196 0.531-0.516 0.94-1.146 1.196-1.84 0.22-0.564 0.48-1.411 0.551-2.972 0.077-1.687 0.093-2.193 0.093-6.465s-0.016-4.778-0.093-6.465c-0.071-1.561-0.332-2.407-0.551-2.972-0.291-0.746-0.636-1.28-1.196-1.84-0.517-0.531-1.145-0.939-1.84-1.196-0.564-0.22-1.411-0.48-2.972-0.551zM13.956 20.932c1.141 0.475 2.412 0.539 3.595 0.181s2.206-1.115 2.893-2.143c0.687-1.028 0.996-2.262 0.873-3.492s-0.668-2.38-1.543-3.252c-0.558-0.558-1.233-0.985-1.976-1.251s-1.536-0.363-2.321-0.286-1.544 0.328-2.221 0.734c-0.677 0.406-1.255 0.957-1.694 1.613s-0.726 1.401-0.842 2.182c-0.116 0.78-0.057 1.577 0.172 2.332s0.622 1.45 1.152 2.035c0.53 0.585 1.183 1.045 1.912 1.347zM10.185 10.185c0.764-0.764 1.67-1.369 2.668-1.783s2.067-0.626 3.147-0.626c1.080 0 2.149 0.213 3.147 0.626s1.904 1.019 2.668 1.783c0.764 0.764 1.369 1.67 1.783 2.668s0.626 2.067 0.626 3.147-0.213 2.149-0.626 3.147c-0.413 0.998-1.019 1.904-1.783 2.668-1.542 1.542-3.634 2.409-5.815 2.409s-4.273-0.866-5.815-2.409-2.409-3.634-2.409-5.815c0-2.181 0.866-4.273 2.409-5.815zM26.048 9.001c0.189-0.179 0.341-0.393 0.446-0.631s0.161-0.495 0.165-0.755c0.004-0.26-0.045-0.518-0.142-0.759s-0.243-0.46-0.427-0.644c-0.184-0.184-0.403-0.329-0.644-0.427s-0.499-0.146-0.759-0.142c-0.26 0.004-0.517 0.060-0.755 0.165s-0.453 0.256-0.631 0.446c-0.347 0.368-0.537 0.857-0.53 1.363s0.212 0.989 0.569 1.347c0.358 0.358 0.841 0.562 1.347 0.569s0.995-0.183 1.363-0.53z"></path>
</symbol>
<symbol id="icon-youtube" viewBox="0 0 43 32">
<path d="M39.178 2.017c-1.155-0.866-4.373-2.017-17.856-2.017-14.449 0-16.593 1.322-17.281 1.754-3.661 2.293-4.009 12.443-4.041 14.501 0.044 2.718 0.466 11.762 4.038 14 0.687 0.431 2.818 1.745 17.284 1.745 13.492 0 16.706-1.145 17.856-2.008 3.121-2.34 3.48-10.398 3.488-13.772-0.008-2.713-0.281-11.795-3.488-14.203l-0-0zM37.623 27.739c-0.464 0.348-3.129 1.485-16.301 1.485-12.734 0-15.406-1.030-15.91-1.347-1.285-0.804-2.642-5.071-2.748-11.628 0.105-6.543 1.48-11.319 2.751-12.114 0.506-0.319 3.188-1.357 15.908-1.357 13.161 0 15.833 1.144 16.301 1.494 1.141 0.857 2.362 5.366 2.38 11.958-0.018 6.696-1.247 10.66-2.38 11.51h0zM30.008 14.908l-11.984-7.665c-0.202-0.127-0.433-0.196-0.669-0.199s-0.468 0.058-0.674 0.179c-0.206 0.121-0.377 0.297-0.496 0.509s-0.182 0.454-0.182 0.7v15.334c0 0.368 0.141 0.721 0.39 0.981s0.588 0.407 0.942 0.407c0.242 0 0.48-0.069 0.688-0.199l11.985-7.668c0.4-0.252 0.644-0.702 0.644-1.189s-0.244-0.938-0.643-1.189h-0zM18.668 21.306v-10.416l8.075 5.207-8.075 5.209z"></path>
</symbol>
<symbol id="icon-logo" viewBox="0 0 41 32">
<path d="M12.278 0.375v12.012h-1.408l-6.545-9.431h-0.117v9.431h-1.455v-12.012h1.408l6.569 9.455h0.117v-9.455h1.431z"></path>
<path d="M16.643 0.375v12.012h-1.455v-12.012h1.455z"></path>
<path d="M29.225 4.129h-1.455c-0.086-0.418-0.237-0.786-0.452-1.103-0.211-0.317-0.469-0.583-0.774-0.798-0.301-0.219-0.635-0.383-1.003-0.493s-0.751-0.164-1.15-0.164c-0.727 0-1.386 0.184-1.977 0.551-0.587 0.368-1.054 0.909-1.402 1.625-0.344 0.716-0.516 1.593-0.516 2.633s0.172 1.918 0.516 2.633c0.348 0.716 0.815 1.257 1.402 1.625 0.59 0.367 1.249 0.551 1.977 0.551 0.399 0 0.782-0.055 1.15-0.164s0.702-0.272 1.003-0.487c0.305-0.219 0.563-0.487 0.774-0.804 0.215-0.321 0.366-0.688 0.452-1.103h1.455c-0.11 0.614-0.309 1.163-0.598 1.648s-0.649 0.897-1.079 1.238c-0.43 0.336-0.913 0.592-1.449 0.768-0.532 0.176-1.101 0.264-1.707 0.264-1.025 0-1.935-0.25-2.733-0.751s-1.425-1.212-1.883-2.135-0.686-2.018-0.686-3.284c0-1.267 0.229-2.362 0.686-3.284s1.085-1.634 1.883-2.135c0.798-0.5 1.709-0.751 2.733-0.751 0.606 0 1.175 0.088 1.707 0.264 0.536 0.176 1.019 0.434 1.449 0.774 0.43 0.336 0.79 0.747 1.079 1.232 0.289 0.481 0.489 1.030 0.598 1.648z"></path>
<path d="M31.576 12.387v-12.012h7.249v1.29h-5.795v4.059h5.419v1.29h-5.419v4.082h5.889v1.29h-7.343z"></path>
<path d="M2.052 19.988l3.566 10.111h0.141l3.566-10.111h1.525l-4.41 12.012h-1.501l-4.411-12.012h1.525z"></path>
<path d="M14.175 19.988v12.012h-1.455v-12.012h1.455z"></path>
<path d="M17.092 32v-12.012h7.249v1.29h-5.795v4.059h5.419v1.29h-5.419v4.082h5.889v1.29h-7.343z"></path>
<path d="M29.145 32l-3.285-12.012h1.478l2.51 9.783h0.117l2.557-9.783h1.642l2.557 9.783h0.117l2.51-9.783h1.478l-3.284 12.012h-1.501l-2.651-9.572h-0.094l-2.651 9.572h-1.501z"></path>
</symbol>
<symbol id="icon-home" viewBox="0 0 32 32">
<path stroke-linejoin="round" stroke-linecap="round" stroke-miterlimit="4" stroke-width="2" d="M25.333 17.333v8.533c0 0.212-0.084 0.416-0.234 0.566s-0.354 0.234-0.566 0.234h-17.067c-0.212 0-0.416-0.084-0.566-0.234s-0.234-0.354-0.234-0.566v-8.533M4 12.667l12-7.333 12 7.333h-24z"></path>
</symbol>
<symbol id="icon-graph" viewBox="0 0 32 32">
<path stroke-linejoin="round" stroke-linecap="round" stroke-miterlimit="4" stroke-width="2" d="M26.667 26.667h-21.333v-21.333"></path>
<path stroke-linejoin="round" stroke-linecap="round" stroke-miterlimit="4" stroke-width="2" d="M5.333 22l10.667-10 4 4 6-6"></path>
</symbol>
<symbol id="icon-frame" viewBox="0 0 32 32">
<path stroke-linejoin="round" stroke-linecap="round" stroke-miterlimit="4" stroke-width="2" d="M20.667 30h-9.333M20.667 30v-13.067c0-0.247-0.098-0.485-0.273-0.66s-0.412-0.273-0.66-0.273h-7.467c-0.248 0-0.485 0.098-0.66 0.273s-0.273 0.413-0.273 0.66v13.067M20.667 30h8.4c0.247 0 0.485-0.098 0.66-0.273s0.273-0.412 0.273-0.66v-3.578c0-0.248-0.098-0.485-0.273-0.66s-0.412-0.273-0.66-0.273h-7.467c-0.247 0-0.485 0.098-0.66 0.273s-0.273 0.413-0.273 0.66v4.511zM11.333 30v-7.623c0-0.248-0.098-0.485-0.273-0.66s-0.412-0.273-0.66-0.273h-7.467c-0.248 0-0.485 0.098-0.66 0.273s-0.273 0.412-0.273 0.66v6.689c0 0.248 0.098 0.485 0.273 0.66s0.412 0.273 0.66 0.273h8.4zM14.143 5.286l1.414-2.998c0.038-0.086 0.1-0.159 0.179-0.21s0.171-0.078 0.264-0.078c0.094 0 0.186 0.027 0.264 0.078s0.141 0.124 0.179 0.21l1.416 2.998 3.161 0.484c0.406 0.062 0.568 0.585 0.274 0.884l-2.287 2.333 0.54 3.295c0.068 0.423-0.355 0.747-0.719 0.546l-2.828-1.556-2.828 1.556c-0.362 0.199-0.787-0.123-0.719-0.546l0.54-3.295-2.287-2.333c-0.296-0.299-0.132-0.821 0.272-0.884l3.164-0.484z"></path>
</symbol>
<symbol id="icon-large" viewBox="0 0 32 32">
<path stroke-linejoin="miter" stroke-linecap="butt" stroke-miterlimit="4" stroke-width="2" d="M10.667 9.333h10.667M10.667 9.333h-5.333c-0.707 0-1.386 0.281-1.886 0.781s-0.781 1.178-0.781 1.886v13.333c0 0.707 0.281 1.386 0.781 1.886s1.178 0.781 1.886 0.781h21.333c0.707 0 1.386-0.281 1.886-0.781s0.781-1.178 0.781-1.886v-13.333c0-0.707-0.281-1.386-0.781-1.886s-1.178-0.781-1.886-0.781h-16zM10.667 9.333v-4.533c0-0.212 0.084-0.416 0.234-0.566s0.354-0.234 0.566-0.234h9.067c0.212 0 0.416 0.084 0.566 0.234s0.234 0.354 0.234 0.566v4.533h-10.667z"></path>
</symbol>
<symbol id="icon-close" viewBox="0 0 32 32">
<path d="M26.667 7.303l-1.97-1.97-7.808 7.808-7.808-7.808-1.97 1.97 7.808 7.808-7.808 7.808 1.97 1.97 7.808-7.808 7.808 7.808 1.97-1.97-7.808-7.808 7.808-7.808z"></path>
</symbol>
</defs>
</svg>
